<svg width="47" height="29" viewBox="0 0 47 29" fill="none" xmlns="http://www.w3.org/2000/svg">
<path d="M9.87219 18.4768L9.87905 18.4878L9.90056 18.4599L10.0003 18.3315C12.7207 14.9031 15.7406 11.7158 19.0254 8.80614L16.0575 7.23061C16.2134 7.18823 16.3714 7.14586 16.5292 7.10563C18.4899 6.59972 20.4786 6.20531 22.4853 5.92436C23.9136 4.80788 25.3824 3.73859 26.8917 2.71648C26.7564 3.43992 26.6408 4.17011 26.5447 4.90706C26.5185 5.10911 26.4961 5.31239 26.4733 5.51351H26.5469C27.7077 5.43879 28.8792 5.40154 30.0614 5.40174C30.8981 5.40174 31.7302 5.42293 32.5554 5.461L32.7197 5.46653H32.7481V5.45977L32.7378 5.44534C31.6071 3.89408 30.1449 2.60582 28.4541 1.67129C26.7633 0.736755 24.8851 0.178672 22.9517 0.03634C21.0183 -0.105992 19.0767 0.170886 17.2636 0.847479C15.4506 1.52407 13.8102 2.58393 12.4579 3.9524C12.2494 4.16458 12.0526 4.38229 11.8606 4.60553C10.6079 6.05242 9.69267 7.75235 9.17946 9.58547C8.35516 12.5316 8.59766 15.6685 9.86533 18.4577C9.86861 18.4638 9.87122 18.4702 9.87313 18.4768H9.87219Z" fill="white"/>
<path d="M46.3778 2.03396C46.3568 2.0022 46.3321 1.97293 46.3043 1.94676C45.4064 0.941743 40.4978 2.42117 33.7526 5.51974C33.5133 5.6313 33.2711 5.74297 33.0258 5.85474C31.0022 6.80664 28.8324 7.88811 26.5537 9.08842L26.2136 9.26928C26.2136 9.43786 26.2136 9.60428 26.2068 9.77409V10.1849C26.2068 11.014 26.2351 11.8351 26.2828 12.6516C26.3267 13.3699 26.389 14.0823 26.4699 14.7887C25.3226 13.6618 24.1247 12.5871 22.8762 11.5646L22.5271 11.2833C22.1257 11.5066 21.7221 11.7352 21.3162 11.969C17.1455 14.3484 13.324 16.7355 10.1032 18.9365C9.68978 19.2201 9.28616 19.4996 8.8923 19.7751C3.17309 23.7949 -0.332325 27.0629 0.0249499 28.3158C0.0376993 28.3617 0.0560181 28.4059 0.0795086 28.4475C0.376615 28.9557 1.47837 28.9695 3.19148 28.5593C5.81587 27.9384 9.87995 26.3349 14.6854 24.0215C17.2604 25.6926 20.3466 26.4267 23.4121 26.0973C26.4777 25.768 29.3305 24.3958 31.4792 22.2172C31.7308 21.9614 31.9677 21.6952 32.1944 21.4256C34.3372 18.8743 35.4172 15.6172 35.2166 12.312C37.7837 10.6255 40.2589 8.807 42.6318 6.86406C45.3902 4.5485 46.8233 2.79548 46.3778 2.03396ZM35.3213 5.64932C38.6634 4.42107 40.9296 4.03356 41.3669 4.78279C41.5743 5.13683 41.3545 5.71411 40.7787 6.45751C39.8082 7.71247 37.817 9.44891 35.1206 11.4184C34.8924 9.64835 34.299 7.94298 33.3769 6.40715C34.058 6.1269 34.7061 5.87429 35.3213 5.64932ZM7.11964 22.2206C8.16848 21.264 9.26527 20.3597 10.4059 19.511C11.0273 20.6003 11.8042 21.596 12.7129 22.4678C13.0996 22.8373 13.5084 23.1837 13.9372 23.505C9.03633 25.6154 5.54807 26.4851 4.98971 25.535C4.98415 25.5235 4.97956 25.5116 4.97599 25.4994C4.68574 24.9058 5.48603 23.7424 7.11964 22.2206Z" fill="white"/>
</svg>
